:SAMPLES-PER-SECOND 30
:FRAME-RANGE 1-2009
:FULLY-SPECIFIED
:DEGREES
1193
root  1.90747 39.1873 -74.1897 -177.927 56.4428 -176.174
RightUpLeg  7.84382 -4.45095 -2.644
RightLeg  10.8555 1.69333 -1.77944
RightFoot  -17.3915 0.254592 7.04346
RightToes  4.71047e-010 1.2921e-014 -6.02303e-014
Spine  5.71784 -0.50711 3.51836
Spine1  0.183957 0.282271 -3.48992
HEad  18.6684 -41.0997 -2.06133
LeftShoulder1  1.01136 0.657858 -29.4498
LeftArm  0.544847 19.9992 -24.3635
LeftForeArm  7.54382 -6.31578 -15.7406
LeftHand  0.255451 0.00153035 -5.54894
RightShoulder  5.47309 11.1462 31.4322
RightArm  6.77485 10.0608 6.39219
RightForeArm  12.0218 31.5489 6.25671
RightHand  0.0498551 -3.3036 4.0623
LeftUpLeg  -16.7613 11.8874 11.7654
LeftLeg  4.45845 1.52178 -1.39732
LeftFoot  5.01477 1.42021 -10.076
LeftToes  2.15783e-011 -7.56106e-012 -8.20802e-012
1194
root  2.33525 38.7754 -75.5381 -179.322 56.6305 -177.177
RightUpLeg  8.81545 -0.863361 -3.68046
RightLeg  14.0948 -1.16142 -2.98154
RightFoot  -20.1761 0.590225 9.39675
RightToes  4.71047e-010 1.2921e-014 -6.02303e-014
Spine  5.73176 -0.438065 1.91703
Spine1  0.182431 0.185476 -2.94497
HEad  20.5613 -42.5417 -2.84232
LeftShoulder1  1.02688 0.615649 -29.4684
LeftArm  -1.07287 19.9146 -24.7333
LeftForeArm  8.1951 -4.03454 -16.4244
LeftHand  0.192363 1.00106 -5.30062
RightShoulder  5.04456 10.3935 30.3642
RightArm  6.10473 9.66137 5.88064
RightForeArm  13.0541 33.5884 6.72146
RightHand  0.0574878 -3.58931 5.19936
LeftUpLeg  -17.8135 14.7471 9.77402
LeftLeg  9.72305 -1.37722 -1.5618
LeftFoot  10.3283 1.64873 -8.93229
LeftToes  2.15783e-011 -7.56106e-012 -8.20802e-012
1195
root  2.7414 38.4535 -76.7582 178.172 56.7935 -179.442
RightUpLeg  8.80257 7.69386 -4.49883
RightLeg  19.683 -9.00175 -3.86577
RightFoot  -21.655 1.06413 13.3712
RightToes  4.71047e-010 1.2921e-014 -6.02303e-014
Spine  6.53004 -0.243122 -0.979223
Spine1  -0.134129 0.120545 -2.3408
HEad  22.0448 -44.1185 -3.01369
LeftShoulder1  1.0555 0.530117 -29.4085
LeftArm  -2.21963 19.4205 -25.14
LeftForeArm  9.29922 -2.70856 -16.6752
LeftHand  0.233931 0.74545 -6.01625
RightShoulder  4.61004 9.40425 29.7767
RightArm  5.73926 8.89208 5.27459
RightForeArm  15.1918 35.8004 7.19178
RightHand  0.0856067 -3.41391 6.36927
LeftUpLeg  -20.1399 18.8393 6.35361
LeftLeg  18.319 -5.51798 -1.71334
LeftFoot  5.79712 0.977858 -6.71917
LeftToes  2.15783e-011 -7.56106e-012 -8.20802e-012
1196
root  3.05732 38.2256 -77.869 175.708 57.2058 178.191
RightUpLeg  6.53514 7.22926 -7.26184
RightLeg  28.053 -9.4016 -5.61826
RightFoot  -20.524 1.44584 19.5748
RightToes  4.71047e-010 1.2921e-014 -6.02303e-014
Spine  7.2172 -0.168709 -2.71709
Spine1  0.176356 0.229218 -3.54116
HEad  22.8068 -45.464 -2.51646
LeftShoulder1  1.17301 0.231614 -29.7718
LeftArm  -1.51699 18.4117 -24.7091
LeftForeArm  8.20061 -3.01028 -16.6874
LeftHand  0.264135 0.602214 -6.55183
RightShoulder  4.26142 8.59918 29.2666
RightArm  5.51324 7.84582 5.08871
RightForeArm  17.2275 37.762 7.62445
RightHand  0.0879573 -3.73595 7.99284
LeftUpLeg  -20.622 20.4173 4.31536
LeftLeg  23.5911 -6.09216 -2.5747
LeftFoot  1.88326 0.60934 -5.3537
LeftToes  2.15783e-011 -7.56106e-012 -8.20802e-012
1197
root  3.30488 38.2055 -78.9216 174.683 57.83 177.116
RightUpLeg  2.25869 5.59688 -9.24436
RightLeg  37.5537 -9.34937 -7.88997
RightFoot  -15.7772 0.638106 19.0957
RightToes  4.71047e-010 1.2921e-014 -6.02303e-014
Spine  7.60276 -0.274315 -3.46446
Spine1  0.633126 0.14572 -4.4159
HEad  23.7205 -45.9821 -3.05237
LeftShoulder1  1.24036 0.0874277 -30.2386
LeftArm  -1.48931 17.4206 -24.9895
LeftForeArm  8.41789 -3.78947 -16.4291
LeftHand  0.286509 0.400867 -6.78074
RightShoulder  4.04087 8.33211 28.1702
RightArm  6.60581 7.29559 5.23367
RightForeArm  18.155 37.9482 7.62069
RightHand  0.114508 -3.79308 10.3444
LeftUpLeg  -20.2225 20.2564 3.10263
LeftLeg  26.1263 -5.11753 -2.38636
LeftFoot  -0.764691 0.42171 -4.50617
LeftToes  2.15783e-011 -7.56106e-012 -8.20802e-012
1198
root  3.56568 38.2697 -79.9014 174.849 58.4863 177.426
RightUpLeg  -2.74122 4.03929 -9.45587
RightLeg  46.6231 -10.717 -12.2087
RightFoot  -8.28656 -0.334558 10.4009
RightToes  4.71047e-010 1.2921e-014 -6.02303e-014
Spine  7.87307 -0.355715 -3.65013
Spine1  0.960702 -0.0163452 -3.9371
HEad  24.7822 -46.2708 -4.20008
LeftShoulder1  1.26362 0.0191185 -30.195
LeftArm  -0.466921 16.4723 -26.0825
LeftForeArm  8.36199 -5.64129 -15.851
LeftHand  0.239721 0.380465 -5.65783
RightShoulder  3.84719 8.24573 26.7241
RightArm  9.56547 7.11565 5.31956
RightForeArm  18.8437 36.4493 7.14942
RightHand  0.153343 -3.66162 12.1716
LeftUpLeg  -19.4087 19.9451 2.74576
LeftLeg  27.6268 -4.07277 -1.96549
LeftFoot  -2.79499 0.296365 -3.74161
LeftToes  2.15783e-011 -7.56106e-012 -8.20802e-012
1199
root  3.79122 38.389 -80.6888 175.173 59.014 177.996
RightUpLeg  -6.71065 2.8964 -8.98011
RightLeg  51.9527 -9.68012 -13.3417
RightFoot  -8.04177 -0.368727 10.8668
RightToes  4.71047e-010 1.2921e-014 -6.02303e-014
Spine  8.43447 -0.427536 -3.95509
Spine1  1.25462 -0.242793 -3.48256
HEad  25.4143 -46.4617 -5.00533
LeftShoulder1  1.25823 -0.0303963 -29.5253
LeftArm  1.6135 15.6296 -27.7301
LeftForeArm  7.62022 -8.64083 -14.7034
LeftHand  0.247549 0.0196519 -5.39821
RightShoulder  3.81328 8.70141 25.1546
RightArm  14.0568 6.54086 5.15835
RightForeArm  18.5851 33.5157 6.37661
RightHand  0.174836 -3.63393 13.4288
LeftUpLeg  -18.2411 20.5387 2.62461
LeftLeg  28.0867 -4.0805 -2.01031
LeftFoot  -4.21809 0.222132 -3.16174
LeftToes  2.15783e-011 -7.56106e-012 -8.20802e-012
1200
root  3.99999 38.5824 -81.3637 176.053 59.011 178.899
RightUpLeg  -10.382 1.4007 -7.87639
RightLeg  54.1887 -8.58582 -12.927
RightFoot  -7.94157 -0.402718 11.7054
RightToes  4.71047e-010 1.2921e-014 -6.02303e-014
Spine  9.05516 -0.710501 -3.99495
Spine1  1.28742 -0.645017 -3.18657
HEad  25.9094 -46.6334 -5.56186
LeftShoulder1  1.2899 -0.153843 -29.1852
LeftArm  6.65148 14.2903 -28.2389
LeftForeArm  4.11099 -12.4992 -12.8815
LeftHand  0.236985 -0.260406 -4.87615
RightShoulder  3.65437 8.70311 23.7799
RightArm  19.5581 6.14263 5.211
RightForeArm  16.3594 29.5656 5.5264
RightHand  0.233389 -3.30943 14.4829
LeftUpLeg  -17.1626 20.0296 2.58355
LeftLeg  27.5957 -3.58869 -1.68377
LeftFoot  -4.76509 0.196408 -2.92046
LeftToes  2.15783e-011 -7.56106e-012 -8.20802e-012
1201
root  4.20533 38.8286 -81.9596 176.765 58.7231 179.365
RightUpLeg  -13.6136 0.523574 -6.72853
RightLeg  53.5767 -8.14616 -12.0393
RightFoot  -8.26062 -0.389216 12.3325
RightToes  4.71047e-010 1.2921e-014 -6.02303e-014
Spine  9.55942 -1.03343 -4.08038
Spine1  1.18011 -1.04666 -2.85119
HEad  25.6924 -46.5402 -5.50418
LeftShoulder1  1.3969 -0.408048 -29.6399
LeftArm  12.8472 12.3185 -27.1259
LeftForeArm  -0.5579 -16.357 -10.3465
LeftHand  0.239829 -0.590588 -4.62295
RightShoulder  3.4181 8.31382 22.7094
RightArm  25.9208 5.65007 5.35796
RightForeArm  12.5703 25.9937 4.91349
RightHand  0.255029 -3.28123 15.4864
LeftUpLeg  -16.0304 20.1059 2.29636
LeftLeg  26.3341 -3.90815 -1.75375
LeftFoot  -4.68505 0.181887 -2.64377
LeftToes  2.15783e-011 -7.56106e-012 -8.20802e-012
1202
root  4.40903 39.1144 -82.4518 177.456 58.832 179.433
RightUpLeg  -16.5639 1.0607 -5.68096
RightLeg  50.4354 -8.85716 -11.6438
RightFoot  -8.44034 -0.384802 12.8703
RightToes  4.71047e-010 1.2921e-014 -6.02303e-014
Spine  9.53073 -1.11847 -4.10631
Spine1  1.30086 -1.09546 -2.81285
HEad  25.3207 -46.0292 -5.41622
LeftShoulder1  1.44975 -0.582104 -29.4106
LeftArm  16.4731 10.6483 -26.7489
LeftForeArm  -4.06131 -19.7052 -7.55213
LeftHand  0.208411 -0.508409 -4.07546
RightShoulder  3.2385 8.03979 21.7858
RightArm  33.2209 4.69062 5.54422
RightForeArm  10.2571 23.0022 4.57344
RightHand  0.487341 -2.04004 17.4374
LeftUpLeg  -14.8922 20.3967 1.90179
LeftLeg  24.2459 -4.31845 -1.77748
LeftFoot  -4.18667 0.209598 -2.95034
LeftToes  2.15783e-011 -7.56106e-012 -8.20802e-012
1203
root  4.59712 39.3896 -82.9022 178.423 58.3084 179.823
RightUpLeg  -18.5192 2.02124 -4.82774
RightLeg  45.1117 -10.0494 -10.9196
RightFoot  -8.38357 -0.392121 12.92
RightToes  4.71047e-010 1.2921e-014 -6.02303e-014
Spine  9.6332 -1.63236 -3.53056
Spine1  1.32203 -1.48936 -2.89965
HEad  24.2694 -44.7229 -4.89607
LeftShoulder1  1.4421 -0.567652 -29.3474
LeftArm  17.2133 8.93916 -25.6833
LeftForeArm  -4.82791 -22.4025 -5.57092
LeftHand  0.196449 -0.832924 -3.60213
RightShoulder  3.14199 7.98154 21.0401
RightArm  38.3465 2.93295 5.51202
RightForeArm  3.54531 22.5433 5.09712
RightHand  0.651494 -1.06131 17.6673
LeftUpLeg  -13.7348 20.3565 1.62967
LeftLeg  21.8375 -4.99091 -1.86705
LeftFoot  -3.5062 0.221124 -2.92141
LeftToes  2.15783e-011 -7.56106e-012 -8.20802e-012
